<?xml version="1.0" encoding="utf-8"?>
<!-- Generator: Adobe Illustrator 16.0.5, SVG Export Plug-In . SVG Version: 6.00 Build 0)  -->
<!DOCTYPE svg PUBLIC "-//W3C//DTD SVG 1.1//EN" "http://www.w3.org/Graphics/SVG/1.1/DTD/svg11.dtd">
<svg version="1.1" id="Layer_1" xmlns="http://www.w3.org/2000/svg" xmlns:xlink="http://www.w3.org/1999/xlink" x="0px" y="0px"
	 width="1080px" height="1080px" viewBox="0 0 1080 1080" enable-background="new 0 0 1080 1080" xml:space="preserve">
<g>
	<g>
		<path d="M749.682,285.812H331.527c-24.254,0-44.006,19.872-44.006,44.127v421.365c0,24.104,19.752,44.037,44.006,44.037h215.711
			V572.966h-45.207V497.71h45.207l1.502-63.668c1.92-78.287,81.77-78.287,81.77-78.287h71.143v75.436h-42.566
			c-27.916,2.07-23.293,29.838-23.293,29.838l-1.322,36.682h67.182l-9.365,76.756h-57.816v220.875h115.211
			c24.314,0,44.066-19.934,44.066-44.037V329.938C793.748,305.684,773.996,285.812,749.682,285.812z"/>
	</g>
</g>
</svg>
