<?xml version="1.0" encoding="utf-8"?>
<!-- Generator: Adobe Illustrator 16.0.5, SVG Export Plug-In . SVG Version: 6.00 Build 0)  -->
<!DOCTYPE svg PUBLIC "-//W3C//DTD SVG 1.1//EN" "http://www.w3.org/Graphics/SVG/1.1/DTD/svg11.dtd">
<svg version="1.1" id="Layer_1" xmlns="http://www.w3.org/2000/svg" xmlns:xlink="http://www.w3.org/1999/xlink" x="0px" y="0px"
	 width="1080px" height="1080px" viewBox="0 0 1080 1080" enable-background="new 0 0 1080 1080" xml:space="preserve">
<g>
	<path d="M540,423.697c-64.117,0-116.248,51.983-116.248,116.283c0,64.153,52.131,116.362,116.248,116.362
		c64.262,0,116.471-52.209,116.471-116.362C656.471,475.68,604.262,423.697,540,423.697z"/>
	<path d="M887.055,396.159c-1.84-37.316-7.646-62.5-16.324-84.851c-8.752-22.867-20.807-42.39-40.293-61.766
		c-19.484-19.595-38.824-31.47-61.689-40.291c-22.279-8.603-47.648-14.559-84.781-16.251c-37.277-1.654-49.043-2.096-143.967-2.096
		c-94.705,0-106.688,0.441-143.967,2.096c-36.912,1.692-62.501,7.648-84.633,16.251c-22.867,8.821-42.352,20.696-61.837,40.291
		c-19.558,19.376-31.397,38.898-40.219,61.766c-8.602,22.351-14.633,47.535-16.179,84.851c-1.689,37.244-2.13,49.119-2.13,143.783
		c0,94.816,0.441,106.621,2.13,143.933c1.545,37.131,7.577,62.502,16.179,84.816c8.822,22.906,20.662,42.207,40.219,61.688
		c19.485,19.561,38.97,31.508,61.837,40.369c22.132,8.604,47.721,14.449,84.633,16.213c37.278,1.652,49.262,2.135,143.967,2.135
		c94.924,0,106.69-0.482,143.967-2.135c37.133-1.764,62.502-7.609,84.781-16.213c22.865-8.861,42.205-20.809,61.689-40.369
		c19.486-19.48,31.541-38.781,40.293-61.688c8.678-22.314,14.484-47.686,16.324-84.816c1.545-37.312,1.91-49.117,1.91-143.933
		C888.965,445.278,888.6,433.403,887.055,396.159z M540,719.205c-98.968,0-179.334-80.219-179.334-179.263
		c0-98.931,80.366-179.297,179.334-179.297c99.042,0,179.192,80.366,179.192,179.297C719.191,638.986,639.041,719.205,540,719.205z
		 M726.322,395.609c-23.164,0-41.91-18.788-41.91-41.949c0-22.979,18.746-41.949,41.91-41.949c23.162,0,41.912,18.969,41.912,41.949
		C768.234,376.821,749.484,395.609,726.322,395.609z"/>
</g>
</svg>
